<mxfile host="Electron" agent="Mozilla/5.0 (Windows NT 10.0; Win64; x64) AppleWebKit/537.36 (KHTML, like Gecko) draw.io/26.2.15 Chrome/134.0.6998.205 Electron/35.2.1 Safari/537.36" version="26.2.15">
  <diagram name="Page-1" id="RoWJYiEvJDzOr6t3DPO1">
    <mxGraphModel dx="868" dy="528" grid="1" gridSize="10" guides="1" tooltips="1" connect="1" arrows="1" fold="1" page="1" pageScale="1" pageWidth="827" pageHeight="1169" math="1" shadow="0">
      <root>
        <mxCell id="0" />
        <mxCell id="1" parent="0" />
        <mxCell id="ifDfLgCKAU6ClsRVcjsK-42" value="" style="rounded=0;whiteSpace=wrap;html=1;dashed=1;fillColor=none;strokeColor=light-dark(#3399FF,#EDEDED);" vertex="1" parent="1">
          <mxGeometry x="400" y="270" width="260" height="250" as="geometry" />
        </mxCell>
        <mxCell id="ifDfLgCKAU6ClsRVcjsK-2" value="$$G_{c2}(s)$$" style="rounded=0;whiteSpace=wrap;html=1;" vertex="1" parent="1">
          <mxGeometry x="301" y="430" width="80" height="50" as="geometry" />
        </mxCell>
        <mxCell id="ifDfLgCKAU6ClsRVcjsK-3" value="$$G_{22}(s)$$" style="rounded=0;whiteSpace=wrap;html=1;" vertex="1" parent="1">
          <mxGeometry x="480" y="460" width="80" height="50" as="geometry" />
        </mxCell>
        <mxCell id="ifDfLgCKAU6ClsRVcjsK-4" value="$$G_{11}(s)$$" style="rounded=0;whiteSpace=wrap;html=1;" vertex="1" parent="1">
          <mxGeometry x="480" y="280" width="80" height="50" as="geometry" />
        </mxCell>
        <mxCell id="ifDfLgCKAU6ClsRVcjsK-9" value="$$U_1$$" style="text;html=1;align=center;verticalAlign=middle;whiteSpace=wrap;rounded=0;" vertex="1" parent="1">
          <mxGeometry x="417" y="313" width="46" height="20" as="geometry" />
        </mxCell>
        <mxCell id="ifDfLgCKAU6ClsRVcjsK-10" value="$$U_2$$" style="text;html=1;align=center;verticalAlign=middle;whiteSpace=wrap;rounded=0;" vertex="1" parent="1">
          <mxGeometry x="417" y="433" width="46" height="20" as="geometry" />
        </mxCell>
        <mxCell id="ifDfLgCKAU6ClsRVcjsK-11" value="$$G_{21}(s)$$" style="rounded=0;whiteSpace=wrap;html=1;" vertex="1" parent="1">
          <mxGeometry x="480" y="340" width="80" height="50" as="geometry" />
        </mxCell>
        <mxCell id="ifDfLgCKAU6ClsRVcjsK-12" value="$$G_{12}(s)$$" style="rounded=0;whiteSpace=wrap;html=1;" vertex="1" parent="1">
          <mxGeometry x="480" y="400" width="80" height="50" as="geometry" />
        </mxCell>
        <mxCell id="ifDfLgCKAU6ClsRVcjsK-20" value="" style="shape=sumEllipse;perimeter=ellipsePerimeter;whiteSpace=wrap;html=1;backgroundOutline=1;strokeWidth=2;" vertex="1" parent="1">
          <mxGeometry x="610" y="325" width="20" height="20" as="geometry" />
        </mxCell>
        <mxCell id="ifDfLgCKAU6ClsRVcjsK-21" value="" style="shape=sumEllipse;perimeter=ellipsePerimeter;whiteSpace=wrap;html=1;backgroundOutline=1;strokeWidth=2;" vertex="1" parent="1">
          <mxGeometry x="610" y="445" width="20" height="20" as="geometry" />
        </mxCell>
        <mxCell id="ifDfLgCKAU6ClsRVcjsK-22" value="" style="endArrow=classic;html=1;rounded=0;exitX=1;exitY=0.5;exitDx=0;exitDy=0;entryX=0;entryY=0;entryDx=0;entryDy=0;" edge="1" parent="1" source="ifDfLgCKAU6ClsRVcjsK-4" target="ifDfLgCKAU6ClsRVcjsK-20">
          <mxGeometry width="50" height="50" relative="1" as="geometry">
            <mxPoint x="630" y="370" as="sourcePoint" />
            <mxPoint x="680" y="320" as="targetPoint" />
            <Array as="points">
              <mxPoint x="590" y="305" />
            </Array>
          </mxGeometry>
        </mxCell>
        <mxCell id="ifDfLgCKAU6ClsRVcjsK-26" value="" style="endArrow=classic;html=1;rounded=0;exitX=1;exitY=0.5;exitDx=0;exitDy=0;entryX=0;entryY=1;entryDx=0;entryDy=0;" edge="1" parent="1" source="ifDfLgCKAU6ClsRVcjsK-3" target="ifDfLgCKAU6ClsRVcjsK-21">
          <mxGeometry width="50" height="50" relative="1" as="geometry">
            <mxPoint x="570" y="315" as="sourcePoint" />
            <mxPoint x="620" y="315" as="targetPoint" />
            <Array as="points">
              <mxPoint x="590" y="485" />
            </Array>
          </mxGeometry>
        </mxCell>
        <mxCell id="ifDfLgCKAU6ClsRVcjsK-29" value="+" style="text;html=1;align=center;verticalAlign=middle;whiteSpace=wrap;rounded=0;" vertex="1" parent="1">
          <mxGeometry x="616" y="344" width="20" height="20" as="geometry" />
        </mxCell>
        <mxCell id="ifDfLgCKAU6ClsRVcjsK-31" value="+" style="text;html=1;align=center;verticalAlign=middle;whiteSpace=wrap;rounded=0;" vertex="1" parent="1">
          <mxGeometry x="594" y="430" width="20" height="20" as="geometry" />
        </mxCell>
        <mxCell id="ifDfLgCKAU6ClsRVcjsK-36" value="$$Y_1$$" style="text;html=1;align=center;verticalAlign=middle;whiteSpace=wrap;rounded=0;" vertex="1" parent="1">
          <mxGeometry x="666" y="313" width="46" height="20" as="geometry" />
        </mxCell>
        <mxCell id="ifDfLgCKAU6ClsRVcjsK-38" value="$$G_{c1}(s)$$" style="rounded=0;whiteSpace=wrap;html=1;" vertex="1" parent="1">
          <mxGeometry x="301" y="310" width="80" height="50" as="geometry" />
        </mxCell>
        <mxCell id="ifDfLgCKAU6ClsRVcjsK-41" style="edgeStyle=orthogonalEdgeStyle;rounded=0;orthogonalLoop=1;jettySize=auto;html=1;exitX=1;exitY=0.5;exitDx=0;exitDy=0;entryX=0;entryY=0.5;entryDx=0;entryDy=0;" edge="1" parent="1" source="ifDfLgCKAU6ClsRVcjsK-39" target="ifDfLgCKAU6ClsRVcjsK-38">
          <mxGeometry relative="1" as="geometry" />
        </mxCell>
        <mxCell id="ifDfLgCKAU6ClsRVcjsK-39" value="" style="shape=sumEllipse;perimeter=ellipsePerimeter;whiteSpace=wrap;html=1;backgroundOutline=1;strokeWidth=2;" vertex="1" parent="1">
          <mxGeometry x="250" y="325" width="20" height="20" as="geometry" />
        </mxCell>
        <mxCell id="ifDfLgCKAU6ClsRVcjsK-140" style="edgeStyle=orthogonalEdgeStyle;rounded=0;orthogonalLoop=1;jettySize=auto;html=1;exitX=1;exitY=0.5;exitDx=0;exitDy=0;entryX=0;entryY=0.5;entryDx=0;entryDy=0;" edge="1" parent="1" source="ifDfLgCKAU6ClsRVcjsK-40" target="ifDfLgCKAU6ClsRVcjsK-2">
          <mxGeometry relative="1" as="geometry" />
        </mxCell>
        <mxCell id="ifDfLgCKAU6ClsRVcjsK-40" value="" style="shape=sumEllipse;perimeter=ellipsePerimeter;whiteSpace=wrap;html=1;backgroundOutline=1;strokeWidth=2;" vertex="1" parent="1">
          <mxGeometry x="250" y="445" width="20" height="20" as="geometry" />
        </mxCell>
        <mxCell id="ifDfLgCKAU6ClsRVcjsK-47" value="" style="endArrow=classic;html=1;rounded=0;entryX=0.5;entryY=0;entryDx=0;entryDy=0;exitX=1;exitY=0.5;exitDx=0;exitDy=0;" edge="1" parent="1" source="ifDfLgCKAU6ClsRVcjsK-20" target="ifDfLgCKAU6ClsRVcjsK-39">
          <mxGeometry width="50" height="50" relative="1" as="geometry">
            <mxPoint x="630" y="340" as="sourcePoint" />
            <mxPoint x="390" y="170" as="targetPoint" />
            <Array as="points">
              <mxPoint x="670" y="335" />
              <mxPoint x="670" y="250" />
              <mxPoint x="470" y="250" />
              <mxPoint x="260" y="250" />
            </Array>
          </mxGeometry>
        </mxCell>
        <mxCell id="ifDfLgCKAU6ClsRVcjsK-58" value="+" style="text;html=1;align=center;verticalAlign=middle;whiteSpace=wrap;rounded=0;" vertex="1" parent="1">
          <mxGeometry x="590" y="320" width="20" height="20" as="geometry" />
        </mxCell>
        <mxCell id="ifDfLgCKAU6ClsRVcjsK-60" value="" style="endArrow=classic;html=1;rounded=0;exitX=1;exitY=0.5;exitDx=0;exitDy=0;entryX=0;entryY=0.5;entryDx=0;entryDy=0;" edge="1" parent="1" source="ifDfLgCKAU6ClsRVcjsK-38" target="ifDfLgCKAU6ClsRVcjsK-11">
          <mxGeometry width="50" height="50" relative="1" as="geometry">
            <mxPoint x="420" y="353" as="sourcePoint" />
            <mxPoint x="473" y="377" as="targetPoint" />
            <Array as="points">
              <mxPoint x="460" y="335" />
              <mxPoint x="460" y="365" />
            </Array>
          </mxGeometry>
        </mxCell>
        <mxCell id="ifDfLgCKAU6ClsRVcjsK-62" value="" style="endArrow=classic;html=1;rounded=0;entryX=0;entryY=0.5;entryDx=0;entryDy=0;" edge="1" parent="1" target="ifDfLgCKAU6ClsRVcjsK-4">
          <mxGeometry width="50" height="50" relative="1" as="geometry">
            <mxPoint x="460" y="340" as="sourcePoint" />
            <mxPoint x="499" y="313" as="targetPoint" />
            <Array as="points">
              <mxPoint x="460" y="305" />
            </Array>
          </mxGeometry>
        </mxCell>
        <mxCell id="ifDfLgCKAU6ClsRVcjsK-63" value="" style="endArrow=classic;html=1;rounded=0;exitX=1;exitY=0.5;exitDx=0;exitDy=0;entryX=0;entryY=0.5;entryDx=0;entryDy=0;" edge="1" parent="1">
          <mxGeometry width="50" height="50" relative="1" as="geometry">
            <mxPoint x="381" y="455" as="sourcePoint" />
            <mxPoint x="480" y="485" as="targetPoint" />
            <Array as="points">
              <mxPoint x="460" y="455" />
              <mxPoint x="460" y="485" />
            </Array>
          </mxGeometry>
        </mxCell>
        <mxCell id="ifDfLgCKAU6ClsRVcjsK-64" value="" style="endArrow=classic;html=1;rounded=0;entryX=0;entryY=0.5;entryDx=0;entryDy=0;" edge="1" parent="1">
          <mxGeometry width="50" height="50" relative="1" as="geometry">
            <mxPoint x="460" y="460" as="sourcePoint" />
            <mxPoint x="480" y="425" as="targetPoint" />
            <Array as="points">
              <mxPoint x="460" y="425" />
            </Array>
          </mxGeometry>
        </mxCell>
        <mxCell id="ifDfLgCKAU6ClsRVcjsK-67" value="" style="endArrow=classic;html=1;rounded=0;exitX=1;exitY=0.5;exitDx=0;exitDy=0;entryX=0.357;entryY=1.002;entryDx=0;entryDy=0;entryPerimeter=0;" edge="1" parent="1" source="ifDfLgCKAU6ClsRVcjsK-12" target="ifDfLgCKAU6ClsRVcjsK-20">
          <mxGeometry width="50" height="50" relative="1" as="geometry">
            <mxPoint x="680" y="400" as="sourcePoint" />
            <mxPoint x="610" y="380" as="targetPoint" />
            <Array as="points">
              <mxPoint x="590" y="425" />
            </Array>
          </mxGeometry>
        </mxCell>
        <mxCell id="ifDfLgCKAU6ClsRVcjsK-72" value="" style="endArrow=classic;html=1;rounded=0;exitX=1;exitY=0.5;exitDx=0;exitDy=0;entryX=0.357;entryY=1.002;entryDx=0;entryDy=0;entryPerimeter=0;" edge="1" parent="1">
          <mxGeometry width="50" height="50" relative="1" as="geometry">
            <mxPoint x="560" y="365" as="sourcePoint" />
            <mxPoint x="617" y="445" as="targetPoint" />
            <Array as="points">
              <mxPoint x="590" y="365" />
            </Array>
          </mxGeometry>
        </mxCell>
        <mxCell id="ifDfLgCKAU6ClsRVcjsK-73" value="" style="endArrow=classic;html=1;rounded=0;exitX=1;exitY=0.5;exitDx=0;exitDy=0;" edge="1" parent="1" source="ifDfLgCKAU6ClsRVcjsK-20">
          <mxGeometry width="50" height="50" relative="1" as="geometry">
            <mxPoint x="680" y="350" as="sourcePoint" />
            <mxPoint x="710" y="335" as="targetPoint" />
          </mxGeometry>
        </mxCell>
        <mxCell id="ifDfLgCKAU6ClsRVcjsK-74" value="" style="endArrow=classic;html=1;rounded=0;exitX=1;exitY=0.5;exitDx=0;exitDy=0;" edge="1" parent="1" source="ifDfLgCKAU6ClsRVcjsK-21">
          <mxGeometry width="50" height="50" relative="1" as="geometry">
            <mxPoint x="636" y="450" as="sourcePoint" />
            <mxPoint x="710" y="455" as="targetPoint" />
          </mxGeometry>
        </mxCell>
        <mxCell id="ifDfLgCKAU6ClsRVcjsK-75" value="$$Y_2$$" style="text;html=1;align=center;verticalAlign=middle;whiteSpace=wrap;rounded=0;" vertex="1" parent="1">
          <mxGeometry x="666" y="433" width="46" height="20" as="geometry" />
        </mxCell>
        <mxCell id="ifDfLgCKAU6ClsRVcjsK-76" value="+" style="text;html=1;align=center;verticalAlign=middle;whiteSpace=wrap;rounded=0;" vertex="1" parent="1">
          <mxGeometry x="604" y="465" width="20" height="20" as="geometry" />
        </mxCell>
        <mxCell id="ifDfLgCKAU6ClsRVcjsK-77" value="" style="endArrow=classic;html=1;rounded=0;entryX=0.5;entryY=0;entryDx=0;entryDy=0;exitX=1;exitY=0.5;exitDx=0;exitDy=0;" edge="1" parent="1">
          <mxGeometry width="50" height="50" relative="1" as="geometry">
            <mxPoint x="630" y="455" as="sourcePoint" />
            <mxPoint x="260" y="465" as="targetPoint" />
            <Array as="points">
              <mxPoint x="670" y="455" />
              <mxPoint x="670" y="540" />
              <mxPoint x="470" y="540" />
              <mxPoint x="260" y="540" />
            </Array>
          </mxGeometry>
        </mxCell>
        <mxCell id="ifDfLgCKAU6ClsRVcjsK-78" value="+" style="text;html=1;align=center;verticalAlign=middle;whiteSpace=wrap;rounded=0;" vertex="1" parent="1">
          <mxGeometry x="222" y="315" width="20" height="20" as="geometry" />
        </mxCell>
        <mxCell id="ifDfLgCKAU6ClsRVcjsK-82" value="" style="endArrow=classic;html=1;rounded=0;entryX=0;entryY=0.5;entryDx=0;entryDy=0;" edge="1" parent="1" target="ifDfLgCKAU6ClsRVcjsK-39">
          <mxGeometry width="50" height="50" relative="1" as="geometry">
            <mxPoint x="200" y="335" as="sourcePoint" />
            <mxPoint x="230" y="330" as="targetPoint" />
          </mxGeometry>
        </mxCell>
        <mxCell id="ifDfLgCKAU6ClsRVcjsK-86" value="-" style="text;html=1;align=center;verticalAlign=middle;whiteSpace=wrap;rounded=0;" vertex="1" parent="1">
          <mxGeometry x="260" y="300" width="20" height="20" as="geometry" />
        </mxCell>
        <mxCell id="ifDfLgCKAU6ClsRVcjsK-87" value="-" style="text;html=1;align=center;verticalAlign=middle;whiteSpace=wrap;rounded=0;" vertex="1" parent="1">
          <mxGeometry x="260" y="465" width="20" height="20" as="geometry" />
        </mxCell>
        <mxCell id="ifDfLgCKAU6ClsRVcjsK-91" value="$$R_{Y1}$$" style="text;html=1;align=center;verticalAlign=middle;whiteSpace=wrap;rounded=0;" vertex="1" parent="1">
          <mxGeometry x="170" y="308" width="60" height="30" as="geometry" />
        </mxCell>
        <mxCell id="ifDfLgCKAU6ClsRVcjsK-93" value="Plant System" style="text;html=1;align=center;verticalAlign=middle;whiteSpace=wrap;rounded=0;fontColor=#3399FF;" vertex="1" parent="1">
          <mxGeometry x="565" y="270" width="110" height="30" as="geometry" />
        </mxCell>
        <mxCell id="ifDfLgCKAU6ClsRVcjsK-95" value="" style="rounded=0;whiteSpace=wrap;html=1;dashed=1;fillColor=none;strokeColor=light-dark(#3399FF,#EDEDED);" vertex="1" parent="1">
          <mxGeometry x="410" y="650" width="260" height="250" as="geometry" />
        </mxCell>
        <mxCell id="ifDfLgCKAU6ClsRVcjsK-96" value="$$G_{c2}(s)$$" style="rounded=0;whiteSpace=wrap;html=1;" vertex="1" parent="1">
          <mxGeometry x="311" y="810" width="80" height="50" as="geometry" />
        </mxCell>
        <mxCell id="ifDfLgCKAU6ClsRVcjsK-97" value="$$G_{22}(s)$$" style="rounded=0;whiteSpace=wrap;html=1;" vertex="1" parent="1">
          <mxGeometry x="490" y="840" width="80" height="50" as="geometry" />
        </mxCell>
        <mxCell id="ifDfLgCKAU6ClsRVcjsK-98" value="$$G_{11}(s)$$" style="rounded=0;whiteSpace=wrap;html=1;" vertex="1" parent="1">
          <mxGeometry x="490" y="660" width="80" height="50" as="geometry" />
        </mxCell>
        <mxCell id="ifDfLgCKAU6ClsRVcjsK-99" value="$$U_1$$" style="text;html=1;align=center;verticalAlign=middle;whiteSpace=wrap;rounded=0;" vertex="1" parent="1">
          <mxGeometry x="427" y="693" width="46" height="20" as="geometry" />
        </mxCell>
        <mxCell id="ifDfLgCKAU6ClsRVcjsK-100" value="$$U_2$$" style="text;html=1;align=center;verticalAlign=middle;whiteSpace=wrap;rounded=0;" vertex="1" parent="1">
          <mxGeometry x="427" y="813" width="46" height="20" as="geometry" />
        </mxCell>
        <mxCell id="ifDfLgCKAU6ClsRVcjsK-101" value="$$G_{21}(s)$$" style="rounded=0;whiteSpace=wrap;html=1;" vertex="1" parent="1">
          <mxGeometry x="490" y="720" width="80" height="50" as="geometry" />
        </mxCell>
        <mxCell id="ifDfLgCKAU6ClsRVcjsK-102" value="$$G_{12}(s)$$" style="rounded=0;whiteSpace=wrap;html=1;" vertex="1" parent="1">
          <mxGeometry x="490" y="780" width="80" height="50" as="geometry" />
        </mxCell>
        <mxCell id="ifDfLgCKAU6ClsRVcjsK-103" value="" style="shape=sumEllipse;perimeter=ellipsePerimeter;whiteSpace=wrap;html=1;backgroundOutline=1;strokeWidth=2;" vertex="1" parent="1">
          <mxGeometry x="620" y="705" width="20" height="20" as="geometry" />
        </mxCell>
        <mxCell id="ifDfLgCKAU6ClsRVcjsK-104" value="" style="shape=sumEllipse;perimeter=ellipsePerimeter;whiteSpace=wrap;html=1;backgroundOutline=1;strokeWidth=2;" vertex="1" parent="1">
          <mxGeometry x="620" y="825" width="20" height="20" as="geometry" />
        </mxCell>
        <mxCell id="ifDfLgCKAU6ClsRVcjsK-105" value="" style="endArrow=classic;html=1;rounded=0;exitX=1;exitY=0.5;exitDx=0;exitDy=0;entryX=0;entryY=0;entryDx=0;entryDy=0;" edge="1" parent="1" source="ifDfLgCKAU6ClsRVcjsK-98" target="ifDfLgCKAU6ClsRVcjsK-103">
          <mxGeometry width="50" height="50" relative="1" as="geometry">
            <mxPoint x="640" y="750" as="sourcePoint" />
            <mxPoint x="690" y="700" as="targetPoint" />
            <Array as="points">
              <mxPoint x="600" y="685" />
            </Array>
          </mxGeometry>
        </mxCell>
        <mxCell id="ifDfLgCKAU6ClsRVcjsK-106" value="" style="endArrow=classic;html=1;rounded=0;exitX=1;exitY=0.5;exitDx=0;exitDy=0;entryX=0;entryY=1;entryDx=0;entryDy=0;" edge="1" parent="1" source="ifDfLgCKAU6ClsRVcjsK-97" target="ifDfLgCKAU6ClsRVcjsK-104">
          <mxGeometry width="50" height="50" relative="1" as="geometry">
            <mxPoint x="580" y="695" as="sourcePoint" />
            <mxPoint x="630" y="695" as="targetPoint" />
            <Array as="points">
              <mxPoint x="600" y="865" />
            </Array>
          </mxGeometry>
        </mxCell>
        <mxCell id="ifDfLgCKAU6ClsRVcjsK-107" value="+" style="text;html=1;align=center;verticalAlign=middle;whiteSpace=wrap;rounded=0;" vertex="1" parent="1">
          <mxGeometry x="626" y="724" width="20" height="20" as="geometry" />
        </mxCell>
        <mxCell id="ifDfLgCKAU6ClsRVcjsK-108" value="+" style="text;html=1;align=center;verticalAlign=middle;whiteSpace=wrap;rounded=0;" vertex="1" parent="1">
          <mxGeometry x="604" y="810" width="20" height="20" as="geometry" />
        </mxCell>
        <mxCell id="ifDfLgCKAU6ClsRVcjsK-109" value="$$Y_1$$" style="text;html=1;align=center;verticalAlign=middle;whiteSpace=wrap;rounded=0;" vertex="1" parent="1">
          <mxGeometry x="676" y="693" width="46" height="20" as="geometry" />
        </mxCell>
        <mxCell id="ifDfLgCKAU6ClsRVcjsK-110" value="$$G_{c1}(s)$$" style="rounded=0;whiteSpace=wrap;html=1;" vertex="1" parent="1">
          <mxGeometry x="311" y="690" width="80" height="50" as="geometry" />
        </mxCell>
        <mxCell id="ifDfLgCKAU6ClsRVcjsK-111" style="edgeStyle=orthogonalEdgeStyle;rounded=0;orthogonalLoop=1;jettySize=auto;html=1;exitX=1;exitY=0.5;exitDx=0;exitDy=0;entryX=0;entryY=0.5;entryDx=0;entryDy=0;" edge="1" parent="1" source="ifDfLgCKAU6ClsRVcjsK-112" target="ifDfLgCKAU6ClsRVcjsK-110">
          <mxGeometry relative="1" as="geometry" />
        </mxCell>
        <mxCell id="ifDfLgCKAU6ClsRVcjsK-112" value="" style="shape=sumEllipse;perimeter=ellipsePerimeter;whiteSpace=wrap;html=1;backgroundOutline=1;strokeWidth=2;" vertex="1" parent="1">
          <mxGeometry x="260" y="705" width="20" height="20" as="geometry" />
        </mxCell>
        <mxCell id="ifDfLgCKAU6ClsRVcjsK-113" style="edgeStyle=orthogonalEdgeStyle;rounded=0;orthogonalLoop=1;jettySize=auto;html=1;exitX=1;exitY=0.5;exitDx=0;exitDy=0;entryX=0;entryY=0.5;entryDx=0;entryDy=0;" edge="1" parent="1" source="ifDfLgCKAU6ClsRVcjsK-114" target="ifDfLgCKAU6ClsRVcjsK-96">
          <mxGeometry relative="1" as="geometry" />
        </mxCell>
        <mxCell id="ifDfLgCKAU6ClsRVcjsK-114" value="" style="shape=sumEllipse;perimeter=ellipsePerimeter;whiteSpace=wrap;html=1;backgroundOutline=1;strokeWidth=2;" vertex="1" parent="1">
          <mxGeometry x="260" y="824" width="20" height="20" as="geometry" />
        </mxCell>
        <mxCell id="ifDfLgCKAU6ClsRVcjsK-115" value="" style="endArrow=classic;html=1;rounded=0;entryX=0.5;entryY=0;entryDx=0;entryDy=0;exitX=1;exitY=0.5;exitDx=0;exitDy=0;" edge="1" parent="1" source="ifDfLgCKAU6ClsRVcjsK-103" target="ifDfLgCKAU6ClsRVcjsK-112">
          <mxGeometry width="50" height="50" relative="1" as="geometry">
            <mxPoint x="640" y="720" as="sourcePoint" />
            <mxPoint x="400" y="550" as="targetPoint" />
            <Array as="points">
              <mxPoint x="680" y="715" />
              <mxPoint x="680" y="630" />
              <mxPoint x="480" y="630" />
              <mxPoint x="270" y="630" />
            </Array>
          </mxGeometry>
        </mxCell>
        <mxCell id="ifDfLgCKAU6ClsRVcjsK-116" value="+" style="text;html=1;align=center;verticalAlign=middle;whiteSpace=wrap;rounded=0;" vertex="1" parent="1">
          <mxGeometry x="600" y="700" width="20" height="20" as="geometry" />
        </mxCell>
        <mxCell id="ifDfLgCKAU6ClsRVcjsK-117" value="" style="endArrow=classic;html=1;rounded=0;entryX=0;entryY=0.5;entryDx=0;entryDy=0;exitX=1;exitY=0.5;exitDx=0;exitDy=0;" edge="1" parent="1" source="ifDfLgCKAU6ClsRVcjsK-96" target="ifDfLgCKAU6ClsRVcjsK-101">
          <mxGeometry width="50" height="50" relative="1" as="geometry">
            <mxPoint x="400" y="760" as="sourcePoint" />
            <mxPoint x="483" y="757" as="targetPoint" />
            <Array as="points">
              <mxPoint x="410" y="835" />
              <mxPoint x="430" y="715" />
              <mxPoint x="470" y="715" />
              <mxPoint x="470" y="745" />
            </Array>
          </mxGeometry>
        </mxCell>
        <mxCell id="ifDfLgCKAU6ClsRVcjsK-118" value="" style="endArrow=classic;html=1;rounded=0;entryX=0;entryY=0.5;entryDx=0;entryDy=0;" edge="1" parent="1" target="ifDfLgCKAU6ClsRVcjsK-98">
          <mxGeometry width="50" height="50" relative="1" as="geometry">
            <mxPoint x="470" y="720" as="sourcePoint" />
            <mxPoint x="509" y="693" as="targetPoint" />
            <Array as="points">
              <mxPoint x="470" y="685" />
            </Array>
          </mxGeometry>
        </mxCell>
        <mxCell id="ifDfLgCKAU6ClsRVcjsK-119" value="" style="endArrow=classic;html=1;rounded=0;exitX=1;exitY=0.5;exitDx=0;exitDy=0;entryX=0;entryY=0.5;entryDx=0;entryDy=0;" edge="1" parent="1" source="ifDfLgCKAU6ClsRVcjsK-110">
          <mxGeometry width="50" height="50" relative="1" as="geometry">
            <mxPoint x="391" y="835" as="sourcePoint" />
            <mxPoint x="490" y="865" as="targetPoint" />
            <Array as="points">
              <mxPoint x="410" y="715" />
              <mxPoint x="430" y="835" />
              <mxPoint x="470" y="835" />
              <mxPoint x="470" y="865" />
            </Array>
          </mxGeometry>
        </mxCell>
        <mxCell id="ifDfLgCKAU6ClsRVcjsK-120" value="" style="endArrow=classic;html=1;rounded=0;entryX=0;entryY=0.5;entryDx=0;entryDy=0;" edge="1" parent="1">
          <mxGeometry width="50" height="50" relative="1" as="geometry">
            <mxPoint x="470" y="840" as="sourcePoint" />
            <mxPoint x="490" y="805" as="targetPoint" />
            <Array as="points">
              <mxPoint x="470" y="805" />
            </Array>
          </mxGeometry>
        </mxCell>
        <mxCell id="ifDfLgCKAU6ClsRVcjsK-121" value="" style="endArrow=classic;html=1;rounded=0;exitX=1;exitY=0.5;exitDx=0;exitDy=0;entryX=0.357;entryY=1.002;entryDx=0;entryDy=0;entryPerimeter=0;" edge="1" parent="1" source="ifDfLgCKAU6ClsRVcjsK-102" target="ifDfLgCKAU6ClsRVcjsK-103">
          <mxGeometry width="50" height="50" relative="1" as="geometry">
            <mxPoint x="690" y="780" as="sourcePoint" />
            <mxPoint x="620" y="760" as="targetPoint" />
            <Array as="points">
              <mxPoint x="600" y="805" />
            </Array>
          </mxGeometry>
        </mxCell>
        <mxCell id="ifDfLgCKAU6ClsRVcjsK-122" value="" style="endArrow=classic;html=1;rounded=0;exitX=1;exitY=0.5;exitDx=0;exitDy=0;entryX=0.357;entryY=1.002;entryDx=0;entryDy=0;entryPerimeter=0;" edge="1" parent="1">
          <mxGeometry width="50" height="50" relative="1" as="geometry">
            <mxPoint x="570" y="745" as="sourcePoint" />
            <mxPoint x="627" y="825" as="targetPoint" />
            <Array as="points">
              <mxPoint x="600" y="745" />
            </Array>
          </mxGeometry>
        </mxCell>
        <mxCell id="ifDfLgCKAU6ClsRVcjsK-123" value="" style="endArrow=classic;html=1;rounded=0;exitX=1;exitY=0.5;exitDx=0;exitDy=0;" edge="1" parent="1" source="ifDfLgCKAU6ClsRVcjsK-103">
          <mxGeometry width="50" height="50" relative="1" as="geometry">
            <mxPoint x="690" y="730" as="sourcePoint" />
            <mxPoint x="720" y="715" as="targetPoint" />
          </mxGeometry>
        </mxCell>
        <mxCell id="ifDfLgCKAU6ClsRVcjsK-124" value="" style="endArrow=classic;html=1;rounded=0;exitX=1;exitY=0.5;exitDx=0;exitDy=0;" edge="1" parent="1" source="ifDfLgCKAU6ClsRVcjsK-104">
          <mxGeometry width="50" height="50" relative="1" as="geometry">
            <mxPoint x="646" y="830" as="sourcePoint" />
            <mxPoint x="720" y="835" as="targetPoint" />
          </mxGeometry>
        </mxCell>
        <mxCell id="ifDfLgCKAU6ClsRVcjsK-125" value="$$Y_2$$" style="text;html=1;align=center;verticalAlign=middle;whiteSpace=wrap;rounded=0;" vertex="1" parent="1">
          <mxGeometry x="676" y="813" width="46" height="20" as="geometry" />
        </mxCell>
        <mxCell id="ifDfLgCKAU6ClsRVcjsK-126" value="+" style="text;html=1;align=center;verticalAlign=middle;whiteSpace=wrap;rounded=0;" vertex="1" parent="1">
          <mxGeometry x="614" y="845" width="20" height="20" as="geometry" />
        </mxCell>
        <mxCell id="ifDfLgCKAU6ClsRVcjsK-127" value="" style="endArrow=classic;html=1;rounded=0;entryX=0.5;entryY=0;entryDx=0;entryDy=0;exitX=1;exitY=0.5;exitDx=0;exitDy=0;" edge="1" parent="1">
          <mxGeometry width="50" height="50" relative="1" as="geometry">
            <mxPoint x="640" y="835" as="sourcePoint" />
            <mxPoint x="270" y="845" as="targetPoint" />
            <Array as="points">
              <mxPoint x="680" y="835" />
              <mxPoint x="680" y="920" />
              <mxPoint x="480" y="920" />
              <mxPoint x="270" y="920" />
            </Array>
          </mxGeometry>
        </mxCell>
        <mxCell id="ifDfLgCKAU6ClsRVcjsK-128" value="+" style="text;html=1;align=center;verticalAlign=middle;whiteSpace=wrap;rounded=0;" vertex="1" parent="1">
          <mxGeometry x="232" y="695" width="20" height="20" as="geometry" />
        </mxCell>
        <mxCell id="ifDfLgCKAU6ClsRVcjsK-129" value="" style="endArrow=classic;html=1;rounded=0;entryX=0;entryY=0.5;entryDx=0;entryDy=0;" edge="1" parent="1" target="ifDfLgCKAU6ClsRVcjsK-112">
          <mxGeometry width="50" height="50" relative="1" as="geometry">
            <mxPoint x="210" y="715" as="sourcePoint" />
            <mxPoint x="240" y="710" as="targetPoint" />
          </mxGeometry>
        </mxCell>
        <mxCell id="ifDfLgCKAU6ClsRVcjsK-130" value="" style="endArrow=classic;html=1;rounded=0;entryX=0;entryY=0.5;entryDx=0;entryDy=0;" edge="1" parent="1" target="ifDfLgCKAU6ClsRVcjsK-114">
          <mxGeometry width="50" height="50" relative="1" as="geometry">
            <mxPoint x="210" y="834" as="sourcePoint" />
            <mxPoint x="250" y="824.4300000000001" as="targetPoint" />
          </mxGeometry>
        </mxCell>
        <mxCell id="ifDfLgCKAU6ClsRVcjsK-131" value="+" style="text;html=1;align=center;verticalAlign=middle;whiteSpace=wrap;rounded=0;" vertex="1" parent="1">
          <mxGeometry x="232" y="814" width="20" height="20" as="geometry" />
        </mxCell>
        <mxCell id="ifDfLgCKAU6ClsRVcjsK-132" value="-" style="text;html=1;align=center;verticalAlign=middle;whiteSpace=wrap;rounded=0;" vertex="1" parent="1">
          <mxGeometry x="270" y="680" width="20" height="20" as="geometry" />
        </mxCell>
        <mxCell id="ifDfLgCKAU6ClsRVcjsK-133" value="-" style="text;html=1;align=center;verticalAlign=middle;whiteSpace=wrap;rounded=0;" vertex="1" parent="1">
          <mxGeometry x="270" y="845" width="20" height="20" as="geometry" />
        </mxCell>
        <mxCell id="ifDfLgCKAU6ClsRVcjsK-134" value="$$R_{Y1}$$" style="text;html=1;align=center;verticalAlign=middle;whiteSpace=wrap;rounded=0;" vertex="1" parent="1">
          <mxGeometry x="180" y="688" width="60" height="30" as="geometry" />
        </mxCell>
        <mxCell id="ifDfLgCKAU6ClsRVcjsK-135" value="$$R_{Y2}$$" style="text;html=1;align=center;verticalAlign=middle;whiteSpace=wrap;rounded=0;" vertex="1" parent="1">
          <mxGeometry x="180" y="807" width="60" height="30" as="geometry" />
        </mxCell>
        <mxCell id="ifDfLgCKAU6ClsRVcjsK-136" value="Plant System" style="text;html=1;align=center;verticalAlign=middle;whiteSpace=wrap;rounded=0;fontColor=#3399FF;" vertex="1" parent="1">
          <mxGeometry x="575" y="650" width="110" height="30" as="geometry" />
        </mxCell>
        <mxCell id="ifDfLgCKAU6ClsRVcjsK-142" value="+" style="text;html=1;align=center;verticalAlign=middle;whiteSpace=wrap;rounded=0;" vertex="1" parent="1">
          <mxGeometry x="222" y="435" width="20" height="20" as="geometry" />
        </mxCell>
        <mxCell id="ifDfLgCKAU6ClsRVcjsK-143" value="" style="endArrow=classic;html=1;rounded=0;entryX=0;entryY=0.5;entryDx=0;entryDy=0;" edge="1" parent="1">
          <mxGeometry width="50" height="50" relative="1" as="geometry">
            <mxPoint x="200" y="455" as="sourcePoint" />
            <mxPoint x="250" y="455" as="targetPoint" />
          </mxGeometry>
        </mxCell>
        <mxCell id="ifDfLgCKAU6ClsRVcjsK-144" value="$$R_{Y2}$$" style="text;html=1;align=center;verticalAlign=middle;whiteSpace=wrap;rounded=0;" vertex="1" parent="1">
          <mxGeometry x="170" y="428" width="60" height="30" as="geometry" />
        </mxCell>
      </root>
    </mxGraphModel>
  </diagram>
</mxfile>
